<svg width="32" height="32" viewBox="0 0 32 32" fill="none" xmlns="http://www.w3.org/2000/svg">
<path d="M5.33334 5.33329H14.6667V2.66663H5.33334C3.86667 2.66663 2.66667 3.86663 2.66667 5.33329V14.6666H5.33334V5.33329ZM13.3333 17.3333L8.00001 24H24L20 18.6666L17.2933 22.28L13.3333 17.3333ZM22.6667 11.3333C22.6667 10.2266 21.7733 9.33329 20.6667 9.33329C19.56 9.33329 18.6667 10.2266 18.6667 11.3333C18.6667 12.44 19.56 13.3333 20.6667 13.3333C21.7733 13.3333 22.6667 12.44 22.6667 11.3333ZM26.6667 2.66663H17.3333V5.33329H26.6667V14.6666H29.3333V5.33329C29.3333 3.86663 28.1333 2.66663 26.6667 2.66663ZM26.6667 26.6666H17.3333V29.3333H26.6667C28.1333 29.3333 29.3333 28.1333 29.3333 26.6666V17.3333H26.6667V26.6666ZM5.33334 17.3333H2.66667V26.6666C2.66667 28.1333 3.86667 29.3333 5.33334 29.3333H14.6667V26.6666H5.33334V17.3333Z"/>
</svg>
